<svg preserveAspectRatio="none" viewBox="0 0 17 14" xmlns="http://www.w3.org/2000/svg"><path d="M17 1.657a6.902 6.902 0 01-2.003.557A3.538 3.538 0 0016.53.258c-.674.406-1.42.7-2.214.858A3.461 3.461 0 0011.77 0C9.844 0 8.283 1.582 8.283 3.534c0 .277.03.547.09.806C5.474 4.192 2.905 2.785 1.185.647a3.552 3.552 0 00-.473 1.777c0 1.226.616 2.307 1.552 2.942a3.434 3.434 0 01-1.58-.443v.045c0 1.713 1.202 3.14 2.797 3.466a3.444 3.444 0 01-1.575.06c.444 1.404 1.732 2.426 3.258 2.455A6.942 6.942 0 010 12.412 9.78 9.78 0 005.347 14c6.414 0 9.922-5.385 9.922-10.056 0-.153-.004-.305-.01-.457A7.155 7.155 0 0017 1.657"/></svg>