<svg preserveAspectRatio="none" viewBox="0 0 18 18" xmlns="http://www.w3.org/2000/svg"><path d="M5.21 0C2.337 0 0 2.344 0 5.224v7.553C0 15.657 2.337 18 5.21 18h7.58c2.873 0 5.21-2.342 5.21-5.223V5.224C18 2.344 15.663 0 12.79 0H5.21zm0 1.547h7.58a3.648 3.648 0 013.668 3.677v7.553a3.646 3.646 0 01-3.668 3.676H5.21a3.645 3.645 0 01-3.666-3.676V5.224A3.646 3.646 0 015.21 1.547zm8.62 1.548a1.08 1.08 0 00-1.079 1.082 1.08 1.08 0 102.16 0 1.08 1.08 0 00-1.08-1.082zM9 4.365C6.456 4.366 4.377 6.45 4.377 9S6.456 13.634 9 13.634 13.624 11.55 13.624 9c0-2.55-2.08-4.634-4.624-4.634zm0 1.548c1.71 0 3.08 1.373 3.08 3.087A3.072 3.072 0 019 12.087 3.071 3.071 0 015.92 9 3.071 3.071 0 019 5.913z"/></svg>