<svg xmlns="http://www.w3.org/2000/svg" xmlns:xlink="http://www.w3.org/1999/xlink"><symbol id="icon-cart" viewBox="0 0 18 16" preserveAspectRatio="none">
<path d="M17.8961 3.05165C17.7931 2.91217 17.6273 2.82596 17.4472 2.8187L6.28162 2.36414C5.96126 2.3509 5.69355 2.58449 5.67986 2.88566C5.66624 3.1867 5.91317 3.44107 6.232 3.45401L16.6416 3.87783L14.5949 9.90922H5.48658L3.84103 1.44688C3.80486 1.26141 3.67004 1.10668 3.4841 1.03778L0.788965 0.0377747C0.491928 -0.0720606 0.156743 0.0657377 0.0400874 0.345938C-0.0763672 0.62629 0.0694931 0.943051 0.36637 1.05323L2.76277 1.94237L4.43736 10.5532C4.48784 10.8121 4.72671 11.0001 5.0055 11.0001H5.28328L4.64896 12.6642C4.59587 12.8036 4.61775 12.9584 4.7081 13.0795C4.79833 13.2006 4.94508 13.2727 5.10173 13.2727H5.54664C5.27095 13.5625 5.10173 13.944 5.10173 14.3636C5.10173 15.266 5.87913 16 6.83433 16C7.78953 16 8.56693 15.266 8.56693 14.3636C8.56693 13.9441 8.39771 13.5625 8.12206 13.2727H11.8996C11.6237 13.5625 11.4546 13.944 11.4546 14.3636C11.4546 15.266 12.2318 16 13.1872 16C14.1426 16 14.9198 15.266 14.9198 14.3636C14.9198 13.9441 14.7506 13.5625 14.475 13.2727H15.016C15.2819 13.2727 15.4973 13.0692 15.4973 12.8182C15.4973 12.5671 15.2819 12.3636 15.016 12.3636H5.78652L6.30624 11H15.016C15.2672 11 15.4894 10.8467 15.5659 10.621L17.9723 3.52998C18.0275 3.36814 17.9992 3.19119 17.8961 3.05165ZM6.83437 15.0911C6.40968 15.0911 6.0643 14.7649 6.0643 14.3638C6.0643 13.9627 6.40968 13.6365 6.83437 13.6365C7.25906 13.6365 7.6044 13.9627 7.6044 14.3638C7.6044 14.7649 7.25906 15.0911 6.83437 15.0911ZM13.1872 15.0911C12.7625 15.0911 12.4171 14.7649 12.4171 14.3638C12.4171 13.9627 12.7625 13.6365 13.1872 13.6365C13.6119 13.6365 13.9572 13.9627 13.9572 14.3638C13.9572 14.7649 13.6119 15.0911 13.1872 15.0911Z"/>
</symbol><symbol id="icon-facebook" viewBox="0 0 9 17" preserveAspectRatio="none">
<path d="M6.62377 0C4.27168 0 2.66088 1.40792 2.66088 3.99443V6.22354H0V9.24668H2.66088V17H5.84158V9.24668H8.49505L8.89357 6.22354H5.84158V4.2931C5.84158 3.41809 6.08977 2.8216 7.36882 2.8216H9V0.118982C8.71786 0.0821513 7.75042 0 6.62377 0Z"/>
</symbol><symbol id="icon-instagram" viewBox="0 0 18 18" preserveAspectRatio="none">
<path d="M5.20991 0C2.3366 0 0 2.34361 0 5.22393V12.7774C0 15.6577 2.3366 18 5.20991 18H12.7901C15.6634 18 18 15.6577 18 12.7774V5.22393C18 2.34361 15.6634 0 12.7901 0H5.20991ZM5.20991 1.54741H12.7901C14.835 1.54741 16.4577 3.17398 16.4577 5.22393V12.7774C16.4577 14.8273 14.835 16.4526 12.7901 16.4526H5.20991C3.16493 16.4526 1.54362 14.8273 1.54362 12.7774V5.22393C1.54362 3.17398 3.16493 1.54741 5.20991 1.54741ZM13.8308 3.0948C13.2345 3.0948 12.7514 3.57909 12.7514 4.17682C12.7514 4.77457 13.2345 5.25884 13.8308 5.25884C14.4271 5.25884 14.9102 4.77457 14.9102 4.17682C14.9102 3.57909 14.4271 3.0948 13.8308 3.0948ZM9 4.36555C6.45569 4.36555 4.37685 6.44948 4.37685 9C4.37685 11.5505 6.45569 13.6344 9 13.6344C11.5443 13.6344 13.6244 11.5505 13.6244 9C13.6244 6.44948 11.5443 4.36555 9 4.36555ZM9 5.91296C10.7102 5.91296 12.0808 7.28561 12.0808 9C12.0808 10.7144 10.7102 12.087 9 12.087C7.28978 12.087 5.92047 10.7144 5.92047 9C5.92047 7.28561 7.28978 5.91296 9 5.91296Z"/>
</symbol><symbol id="icon-like" viewBox="0 0 21 18" preserveAspectRatio="none">
<path d="M19.9686 5.77104C19.6912 3.00625 17.5306 1.00033 14.8266 1.00033C13.0251 1.00033 11.3757 1.87835 10.4475 3.28557C9.5278 1.86015 7.94595 1 6.17336 1C3.4697 1 1.30868 3.00592 1.0317 5.77071C1.00978 5.89283 0.919889 6.53555 1.19321 7.58368C1.58712 9.09548 2.49699 10.4706 3.82378 11.5594L10.4431 17L17.1761 11.5598C18.5029 10.4706 19.4128 9.09581 19.8067 7.58368C20.08 6.53588 19.9902 5.89316 19.9686 5.77104ZM19.0953 7.4321C18.7357 8.81284 17.9022 10.0708 16.6872 11.0676L10.4475 16.1097L4.31489 11.069C3.09772 10.0701 2.26459 8.81251 1.90466 7.43177C1.64595 6.4399 1.75229 5.87959 1.75265 5.87595L1.75813 5.84253C1.99565 3.42027 3.85229 1.66191 6.17336 1.66191C7.88602 1.66191 9.39369 2.61506 10.1092 4.14903L10.4457 4.87151L10.7822 4.14903C11.4864 2.63856 13.0737 1.66224 14.8269 1.66224C17.1476 1.66224 19.0047 3.4206 19.2469 5.8743C19.2476 5.87959 19.354 6.44023 19.0953 7.4321Z" stroke-width="0.75"/>
</symbol><symbol id="icon-search" viewBox="0 0 16 16" preserveAspectRatio="none">
<path d="M15.8041 14.8637L11.9576 11.0171C12.911 9.85469 13.4857 8.36571 13.4857 6.74286C13.4857 3.02041 10.4653 0 6.74286 0C3.01714 0 0 3.02041 0 6.74286C0 10.4653 3.01714 13.4857 6.74286 13.4857C8.36571 13.4857 9.85143 12.9143 11.0139 11.9608L14.8604 15.8041C15.1216 16.0653 15.5429 16.0653 15.8041 15.8041C16.0653 15.5461 16.0653 15.1216 15.8041 14.8637ZM6.74286 12.1437C3.76163 12.1437 1.33878 9.72082 1.33878 6.74286C1.33878 3.7649 3.76163 1.33878 6.74286 1.33878C9.72082 1.33878 12.1469 3.7649 12.1469 6.74286C12.1469 9.72082 9.72082 12.1437 6.74286 12.1437Z"/>
</symbol><symbol id="icon-twitter" viewBox="0 0 17 14" preserveAspectRatio="none">
<path d="M17 1.65702C16.3748 1.93818 15.7026 2.1282 14.9972 2.21381C15.7171 1.7762 16.2699 1.0836 16.5303 0.258489C15.8565 0.663669 15.1104 0.957564 14.3156 1.11598C13.6797 0.429253 12.7733 0 11.7702 0C9.84399 0 8.28278 1.58229 8.28278 3.53421C8.28278 3.81132 8.31334 4.08115 8.37304 4.33966C5.47446 4.19246 2.90469 2.78497 1.18455 0.646903C0.884335 1.16866 0.712366 1.7757 0.712366 2.42352C0.712366 3.64988 1.32781 4.73148 2.26388 5.36553C1.69221 5.34741 1.15438 5.18836 0.684154 4.92345C0.683485 4.93834 0.68348 4.95302 0.68348 4.96781C0.68348 6.68053 1.88579 8.10868 3.48108 8.43358C3.18868 8.51437 2.88065 8.55709 2.56255 8.55709C2.33759 8.55709 2.11949 8.53552 1.90617 8.49408C2.35027 9.89816 3.63801 10.9201 5.1644 10.9487C3.96982 11.8968 2.46628 12.4616 0.832201 12.4616C0.55089 12.4616 0.273057 12.4448 0 12.4123C1.54405 13.4151 3.37699 14 5.34672 14C11.7614 14 15.2689 8.61468 15.2689 3.94383C15.2689 3.79067 15.2654 3.63855 15.2591 3.48698C15.9402 2.98827 16.5314 2.36595 16.9992 1.65705"/>
</symbol></svg>