<svg width="18" height="16" viewBox="0 0 18 16" fill="none" xmlns="http://www.w3.org/2000/svg">
<path d="M17.8961 3.05165C17.7931 2.91217 17.6273 2.82596 17.4472 2.8187L6.28162 2.36414C5.96126 2.3509 5.69355 2.58449 5.67986 2.88566C5.66624 3.1867 5.91317 3.44107 6.232 3.45401L16.6416 3.87783L14.5949 9.90922H5.48658L3.84103 1.44688C3.80486 1.26141 3.67004 1.10668 3.4841 1.03778L0.788965 0.0377747C0.491928 -0.0720606 0.156743 0.0657377 0.0400874 0.345938C-0.0763672 0.62629 0.0694931 0.943051 0.36637 1.05323L2.76277 1.94237L4.43736 10.5532C4.48784 10.8121 4.72671 11.0001 5.0055 11.0001H5.28328L4.64896 12.6642C4.59587 12.8036 4.61775 12.9584 4.7081 13.0795C4.79833 13.2006 4.94508 13.2727 5.10173 13.2727H5.54664C5.27095 13.5625 5.10173 13.944 5.10173 14.3636C5.10173 15.266 5.87913 16 6.83433 16C7.78953 16 8.56693 15.266 8.56693 14.3636C8.56693 13.9441 8.39771 13.5625 8.12206 13.2727H11.8996C11.6237 13.5625 11.4546 13.944 11.4546 14.3636C11.4546 15.266 12.2318 16 13.1872 16C14.1426 16 14.9198 15.266 14.9198 14.3636C14.9198 13.9441 14.7506 13.5625 14.475 13.2727H15.016C15.2819 13.2727 15.4973 13.0692 15.4973 12.8182C15.4973 12.5671 15.2819 12.3636 15.016 12.3636H5.78652L6.30624 11H15.016C15.2672 11 15.4894 10.8467 15.5659 10.621L17.9723 3.52998C18.0275 3.36814 17.9992 3.19119 17.8961 3.05165ZM6.83437 15.0911C6.40968 15.0911 6.0643 14.7649 6.0643 14.3638C6.0643 13.9627 6.40968 13.6365 6.83437 13.6365C7.25906 13.6365 7.6044 13.9627 7.6044 14.3638C7.6044 14.7649 7.25906 15.0911 6.83437 15.0911ZM13.1872 15.0911C12.7625 15.0911 12.4171 14.7649 12.4171 14.3638C12.4171 13.9627 12.7625 13.6365 13.1872 13.6365C13.6119 13.6365 13.9572 13.9627 13.9572 14.3638C13.9572 14.7649 13.6119 15.0911 13.1872 15.0911Z" fill="#1B1A17"/>
</svg>
